<svg xmlns="http://www.w3.org/2000/svg" width="48" height="48" viewBox="0 0 48 48">
  <path id="Icon_awesome-stroopwafel" data-name="Icon awesome-stroopwafel" d="M17.636,19.757,13.393,24l4.242,4.242L21.878,24l-4.242-4.243Zm10.606-2.121L24,13.393l-4.242,4.242L24,21.878ZM19.758,30.364,24,34.607l4.243-4.243L24,26.122ZM24,0A24,24,0,1,0,48,24,24,24,0,0,0,24,0ZM41.5,27.712l-1.06,1.06a.75.75,0,0,1-1.06,0l-2.652-2.652-4.242,4.242,3.182,3.182,1.591-1.591a.75.75,0,0,1,1.06,0l1.06,1.06a.75.75,0,0,1,0,1.06l-1.591,1.591,1.591,1.591a.75.75,0,0,1,0,1.06l-1.06,1.06a.75.75,0,0,1-1.06,0l-1.591-1.591-1.591,1.591a.75.75,0,0,1-1.06,0l-1.06-1.06a.75.75,0,0,1,0-1.06l1.591-1.591-3.182-3.182-4.243,4.243,2.652,2.652a.75.75,0,0,1,0,1.06l-1.06,1.06a.75.75,0,0,1-1.06,0L24,38.849,21.348,41.5a.75.75,0,0,1-1.06,0l-1.06-1.06a.75.75,0,0,1,0-1.06l2.652-2.652-4.242-4.243-3.182,3.182,1.591,1.591a.75.75,0,0,1,0,1.06l-1.06,1.06a.75.75,0,0,1-1.06,0l-1.591-1.591-1.591,1.591a.75.75,0,0,1-1.06,0l-1.06-1.06a.75.75,0,0,1,0-1.06l1.591-1.591L8.623,34.076a.75.75,0,0,1,0-1.06l1.06-1.06a.75.75,0,0,1,1.06,0l1.591,1.591,3.182-3.182-4.242-4.242L8.622,28.775a.75.75,0,0,1-1.06,0L6.5,27.712a.75.75,0,0,1,0-1.06L9.151,24,6.5,21.348a.75.75,0,0,1,0-1.06l1.06-1.06a.75.75,0,0,1,1.06,0l2.652,2.652,4.242-4.243-3.182-3.182-1.591,1.591a.75.75,0,0,1-1.06,0l-1.06-1.06a.75.75,0,0,1,0-1.06l1.591-1.591L8.62,10.743a.75.75,0,0,1,0-1.06l1.06-1.06a.75.75,0,0,1,1.06,0l1.591,1.591,1.591-1.591a.75.75,0,0,1,1.06,0l1.06,1.06a.75.75,0,0,1,0,1.06l-1.591,1.591,3.182,3.182,4.243-4.242L19.225,8.621a.75.75,0,0,1,0-1.06l1.06-1.06a.75.75,0,0,1,1.06,0L24,9.151,26.652,6.5a.75.75,0,0,1,1.06,0l1.06,1.06a.75.75,0,0,1,0,1.06l-2.652,2.652,4.243,4.242,3.182-3.182-1.591-1.591a.75.75,0,0,1,0-1.06l1.06-1.06a.75.75,0,0,1,1.06,0l1.591,1.591L37.257,8.62a.75.75,0,0,1,1.06,0l1.06,1.06a.75.75,0,0,1,0,1.06l-1.591,1.591,1.591,1.591a.75.75,0,0,1,0,1.06l-1.06,1.06a.75.75,0,0,1-1.06,0l-1.591-1.591-3.182,3.182,4.242,4.243,2.652-2.652a.75.75,0,0,1,1.06,0l1.06,1.06a.75.75,0,0,1,0,1.06L38.849,24,41.5,26.651a.751.751,0,0,1,0,1.061ZM26.122,24l4.243,4.242L34.607,24l-4.242-4.243Z" fill="#609cb8"/>
</svg>
