<svg xmlns="http://www.w3.org/2000/svg" width="45" height="44.99" viewBox="0 0 45 44.99">
  <path id="instagram" d="M22.43,42.785A11.535,11.535,0,1,0,33.965,54.32,11.517,11.517,0,0,0,22.43,42.785Zm0,19.034a7.5,7.5,0,1,1,7.5-7.5A7.513,7.513,0,0,1,22.43,61.819Zm14.7-19.506a2.69,2.69,0,1,1-2.69-2.69A2.684,2.684,0,0,1,37.127,42.313Zm7.64,2.731c-.171-3.6-.994-6.8-3.634-9.427s-5.823-3.453-9.427-3.634c-3.714-.211-14.848-.211-18.562,0-3.594.171-6.786.994-9.427,3.624S.264,41.43.083,45.034c-.211,3.714-.211,14.848,0,18.562.171,3.6.994,6.8,3.634,9.427s5.823,3.453,9.427,3.634c3.714.211,14.848.211,18.562,0,3.6-.171,6.8-.994,9.427-3.634S44.586,67.2,44.767,63.6c.211-3.714.211-14.838,0-18.552Zm-4.8,22.538a7.592,7.592,0,0,1-4.277,4.277c-2.962,1.175-9.989.9-13.262.9s-10.31.261-13.262-.9a7.592,7.592,0,0,1-4.277-4.277c-1.175-2.961-.9-9.989-.9-13.262s-.261-10.31.9-13.262a7.592,7.592,0,0,1,4.277-4.277c2.962-1.175,9.989-.9,13.262-.9s10.31-.261,13.262.9a7.592,7.592,0,0,1,4.277,4.277c1.175,2.962.9,9.989.9,13.262S41.143,64.63,39.968,67.582Z" transform="translate(0.075 -31.825)"/>
</svg>
