<svg xmlns="http://www.w3.org/2000/svg" width="25.505" height="30.693" viewBox="0 0 25.505 30.693">
  <g id="Component_3_2" data-name="Component 3 – 2" transform="translate(0.253 0.254)">
    <path id="Path_1" data-name="Path 1" d="M5.083,8.055V7.866a7.486,7.486,0,1,1,14.972,0v.189H22.42a1.814,1.814,0,0,1,1.8,1.551l.345,2.352a48.175,48.175,0,0,1,0,13.967,4.941,4.941,0,0,1-4.379,4.2l-.991.1a64.179,64.179,0,0,1-13.242,0l-.991-.1a4.941,4.941,0,0,1-4.379-4.2,48.171,48.171,0,0,1,0-13.967L.922,9.606A1.814,1.814,0,0,1,2.717,8.055Zm6.21-5.149a5.122,5.122,0,0,1,6.4,4.961v.189H7.446V7.866A5.122,5.122,0,0,1,11.293,2.905Zm-6.21,7.513v3.546a1.182,1.182,0,0,0,2.364,0V10.419H17.69v3.546a1.182,1.182,0,0,0,2.364,0V10.419h1.891L22.22,12.3a45.809,45.809,0,0,1,0,13.282,2.577,2.577,0,0,1-2.284,2.19l-.991.1a61.823,61.823,0,0,1-12.754,0l-.991-.1a2.577,2.577,0,0,1-2.284-2.19,45.808,45.808,0,0,1,0-13.282l.276-1.882Z" transform="translate(-0.068 -0.38)" fill="#eff3f8" stroke="#383b40" stroke-width="0.5" fill-rule="evenodd"/>
  </g>
</svg>
