<svg xmlns="http://www.w3.org/2000/svg" width="23.616" height="19.683" viewBox="0 0 23.616 19.683">
  <path id="telegram-svgrepo-com" d="M24.6,7.174s2.185-.852,2,1.217c-.061.852-.607,3.834-1.032,7.059L24.12,25s-.12,1.4-1.214,1.647-2.731-.852-3.035-1.1c-.243-.183-4.552-2.921-6.069-4.26a1.155,1.155,0,0,1,.061-1.947l6.373-6.085c.728-.73,1.457-2.434-1.578-.365l-8.5,5.781a3.558,3.558,0,0,1-2.792.061L3.424,17.519s-1.457-.913,1.032-1.826C10.525,12.833,17.99,9.912,24.6,7.174Z" transform="translate(-3 -7)"/>
</svg>
