<svg xmlns="http://www.w3.org/2000/svg" width="25.062" height="20.915" viewBox="0 0 25.062 20.915">
  <path id="path24592" d="M25.062,102.453a6.728,6.728,0,0,1-.936,1.341,6.892,6.892,0,0,1-1.69,1.425q.028.224.042.419a15.2,15.2,0,0,1-1.076,5.826,15.338,15.338,0,0,1-6.1,7.586,16.055,16.055,0,0,1-9.56,1.75A10.979,10.979,0,0,1,0,118.575a10.7,10.7,0,0,0,7.656-2.207,5.274,5.274,0,0,1-4.862-3.6,3.273,3.273,0,0,0,1.09.056,10.092,10.092,0,0,0,1.229-.168,5.764,5.764,0,0,1-3.493-2.71,5.842,5.842,0,0,1-.587-2.57,4.912,4.912,0,0,0,2.319.7,5.992,5.992,0,0,1-2.277-3.7,6.855,6.855,0,0,1,.629-3.339A17.574,17.574,0,0,0,7.67,105.5a12.348,12.348,0,0,0,4.68.978,6.254,6.254,0,0,1,.629-3.967,5.408,5.408,0,0,1,3.227-2.347,4.764,4.764,0,0,1,4.778,1.481,8.506,8.506,0,0,0,3.325-1.229,5.045,5.045,0,0,1-2.291,2.962,14.491,14.491,0,0,0,3.044-.925Z" transform="translate(0 -100.013)"/>
</svg>
