<svg xmlns="http://www.w3.org/2000/svg" width="27.99" height="30.591" viewBox="0 0 27.99 30.591">
  <g id="Group_9" data-name="Group 9" transform="translate(0.15 0.15)">
    <path id="Path_5" data-name="Path 5" d="M3.75,7.705a7.455,7.455,0,1,1,7.455,7.455A7.455,7.455,0,0,1,3.75,7.705Zm7.455-4.824a4.824,4.824,0,1,0,4.824,4.824A4.824,4.824,0,0,0,11.205,2.881Z" transform="translate(2.64)" fill="#eff3f8" stroke="#383b40" stroke-width="0.8" fill-rule="evenodd"/>
    <path id="Path_6" data-name="Path 6" d="M.25,16.828A6.578,6.578,0,0,1,6.828,10.25h.6a3.073,3.073,0,0,1,.953.152l1.518.5a12.72,12.72,0,0,0,7.9,0l1.518-.5a3.073,3.073,0,0,1,.953-.152h.6a6.578,6.578,0,0,1,6.578,6.578v2.085a2.7,2.7,0,0,1-2.262,2.661,70.334,70.334,0,0,1-22.667,0A2.7,2.7,0,0,1,.25,18.913Zm6.578-3.947a3.947,3.947,0,0,0-3.947,3.947v2.085a.065.065,0,0,0,.054.064,67.7,67.7,0,0,0,21.819,0,.065.065,0,0,0,.054-.064V16.828a3.947,3.947,0,0,0-3.947-3.947h-.6a.444.444,0,0,0-.136.022l-1.518.5a15.351,15.351,0,0,1-9.529,0l-1.518-.5a.443.443,0,0,0-.136-.022Z" transform="translate(0 7.542)" fill="#eff3f8" stroke="#383b40" stroke-width="0.8" fill-rule="evenodd"/>
  </g>
</svg>
