<svg xmlns="http://www.w3.org/2000/svg" width="26.682" height="18.146" viewBox="0 0 26.682 18.146">
  <path id="Path_887" data-name="Path 887" d="M23.19,38.145c4.15,1.261,3.545,5.137,3.38,9.029-.088,2.067.222,5.287-.682,7.209-.579,1.225-1.742,1.271-2.935,1.323-5.866.274-11.83.517-17.691.248C1.944,55.8-.294,54.8.115,51.551a51.3,51.3,0,0,1,.295-9.52c.171-1.6.517-3.209,2.233-3.737,1.209-.377,2.76.01,4.021-.041,1.628-.062,3.24-.289,4.874-.31,3.752-.052,7.5.026,11.256.047a.57.57,0,0,1,.4.155Zm-5.706,8.129c-1.457-.8-2.925-1.587-4.414-2.326-.951-.475-1.907-.946-2.879-1.39-.041-.021-.2-.072-.367-.134.419,2.8.052,5.876-.067,8.739,2.653-1.519,5.206-3.172,7.728-4.888Z" transform="translate(-0.016 -37.925)"/>
</svg>
